<svg xmlns="http://www.w3.org/2000/svg" viewBox="140 25 660 660">
	<path d="M353.202 27.8393C362.865 26.3687 386.47 30.4192 397.264 31.5761L473.707 39.4083L660.615 58.5005C674.139 59.9319 687.663 61.4786 701.203 62.7474C713.91 63.938 726.619 64.772 739.249 66.6842C747.964 68.0037 755.856 70.2209 763.595 74.6178Q765.008 75.4215 766.379 76.2937Q767.751 77.166 769.078 78.1047Q770.404 79.0434 771.683 80.0463Q772.963 81.0492 774.191 82.1139Q775.419 83.1785 776.593 84.3024Q777.767 85.4262 778.885 86.6065Q780.002 87.7868 781.06 89.0206Q782.118 90.2545 783.114 91.539Q784.11 92.8234 785.042 94.1553Q785.973 95.4873 786.838 96.8634Q787.703 98.2396 788.499 99.6567Q789.295 101.074 790.02 102.528Q790.746 103.983 791.399 105.471Q792.051 106.96 792.63 108.479Q793.209 109.998 793.712 111.543Q794.215 113.089 794.642 114.657C798.108 127.639 796.873 142.023 796.789 155.361L796.678 191.463L796.584 316.224L796.57 466.843L796.801 516.941C796.854 527.515 797.236 538.209 796.488 548.758C795.714 559.679 792.861 569.39 787.294 578.849C782.692 586.667 775.955 593.661 768.379 598.642C761.766 602.99 754.374 606.18 747.25 609.585L717.454 623.912Q678.447 643.297 639.127 662.038C619.142 671.559 606.5 679.316 584.734 684.9Q581.453 685.518 578.138 685.913C566.26 687.291 553.916 685.609 542.079 684.492L510.763 681.674L396.267 671.762L260.023 659.573L222.501 656.158C213.372 655.374 204.002 654.96 195.014 653.15C184.341 651.002 173.985 645.525 165.512 638.716C151.86 627.747 142.794 610.483 140.962 593.112C139.966 583.662 140.521 573.87 140.586 564.371L140.649 522.508L140.597 371.987L140.515 235.079L140.503 193.607C140.51 184.78 140.086 175.632 141.239 166.863C143.111 152.64 149.519 139.335 158.541 128.274C163.696 121.954 169.768 116.709 176.665 112.364C185.655 106.7 195.305 102.317 204.747 97.4857L251.239 73.554L297.246 49.5038C307.369 44.1477 317.372 38.259 327.988 33.9239C336.136 30.5967 344.468 28.7423 353.202 27.8393Z"/>
	<path fill="#FEFEFE" d="M357.157 72.3735C367.961 71.508 381.961 74.0409 393.017 75.1535L461.011 81.996L597.179 95.586C626.254 98.4315 655.367 100.783 684.366 104.382C669.811 112.761 653.808 119.486 638.652 126.784C627.795 132.012 617.121 138.19 605.89 142.524C600.918 144.442 595.911 145.755 590.645 146.587C575.325 149.068 558.518 145.665 543.222 144.109L488.745 138.684Q375.586 128.133 262.542 116.402C279.454 108.007 296.263 99.3381 313.029 90.6555C323.083 85.4482 333.228 79.4063 343.834 75.4186C348.257 73.7555 352.469 72.8844 357.157 72.3735Z"/>
	<path fill="#FEFEFE" d="M746.561 123.04C748.28 122.736 749.638 122.847 751.222 123.639C752.533 124.295 753.526 125.274 754.004 126.658C755.543 130.471 754.6 215.273 754.599 226.351L754.589 456.906L754.577 519.975C754.585 529.279 755.795 539.592 754.367 548.734C753.562 553.887 751.128 557.909 746.856 560.942C741.595 564.676 734.951 567.066 729.129 569.869C721.115 573.727 713.212 577.885 705.219 581.803L649.651 609.183C645.337 611.271 641.113 613.709 636.771 615.697C635.695 616.189 634.997 616.584 633.806 616.374L633.617 615.117C632.814 581.587 633.449 547.935 633.427 514.388L633.287 324.528L633.27 248.725C633.285 235.102 634.356 220.998 632.71 207.468C631.614 198.461 627.915 191.778 623.178 184.248C634.334 178.027 645.941 172.615 657.408 166.996L715.713 138.34C725.953 133.293 736.525 128.438 746.561 123.04Z"/>
	<path fill="#FEFEFE" d="M200.886 155.294C212.842 154.704 225.305 157.34 237.213 158.532L312.61 165.913L460.419 180.336C494.401 183.525 528.528 186.134 562.441 189.946C566.742 190.429 571.078 190.905 575.021 192.821C581.337 195.891 586.727 201.913 588.906 208.606C591.574 216.8 590.198 246.136 590.197 256.061L590.302 323.992L590.726 512.602L590.813 579.494C590.815 592.063 591.051 604.707 590.638 617.267C590.488 621.831 590.223 626.898 588.075 631.025C584.899 637.127 579.433 640.549 573.028 642.529C560.795 644.19 541.043 640.974 528.331 639.76L465.161 634.069Q378.491 626.686 291.918 618.231L242.629 613.565C230.907 612.537 219.04 611.893 207.373 610.396C202.791 609.808 198.758 608.818 194.8 606.366C188.935 602.734 184.998 597.209 183.505 590.465C181.561 581.682 182.953 562.32 182.955 552.485L182.957 465.091L182.946 270.868L182.985 214.772C182.912 202.595 182.415 190.327 182.842 178.157C183.013 173.257 183.701 168.372 186.424 164.179C189.828 158.937 194.941 156.548 200.886 155.294Z"/>
	<path fill="#00E945" d="M398.749 531.968C411.164 531.973 424.004 533.929 436.405 535.02C463.442 537.4 490.515 540.126 517.59 541.989C517.446 548.128 516.709 554.32 516.153 560.437C476.528 558.385 437.057 552.351 397.423 550.537C397.345 544.368 398.186 538.11 398.749 531.968Z"/>
	<path d="M326.141 238.86C334.302 239.674 342.513 240.812 350.534 242.537Q350.479 257.581 350.602 272.624C372.461 278.704 391.025 294.965 403.947 313.078C396.565 317.241 388.975 321.202 381.089 324.323C377.866 319.987 374.37 315.716 370.423 312.019C359.014 301.333 342.085 294.885 326.436 295.45C317.89 295.758 309.261 298.523 303.336 304.926C298.096 310.59 295.864 317.956 296.284 325.591C297.824 353.606 325.376 366.615 346.6 378.764C358.954 385.835 371.563 392.902 382.254 402.403Q383.599 403.588 384.884 404.837Q386.169 406.086 387.391 407.397Q388.613 408.708 389.769 410.077Q390.926 411.446 392.013 412.871Q393.101 414.295 394.117 415.772Q395.133 417.248 396.076 418.772Q397.018 420.296 397.885 421.865Q398.751 423.434 399.54 425.043Q400.328 426.653 401.036 428.299Q401.745 429.945 402.371 431.625Q402.998 433.304 403.541 435.011Q404.085 436.719 404.544 438.452Q405.002 440.184 405.376 441.937Q405.749 443.69 406.035 445.459Q406.322 447.228 406.521 449.009Q406.72 450.79 406.832 452.579C407.654 467.418 404.389 483.611 394.159 494.877C382.727 507.468 367.762 511.012 351.447 511.881L351.445 545.838C346.926 544.906 342.303 544.305 337.742 543.595Q331.39 542.752 325.066 541.72C324.513 530.6 324.874 519.339 324.921 508.202C319.323 505.966 313.563 504.267 308.131 501.607C290.404 492.925 274.858 476.96 265.003 460.012C271.838 455.222 279.372 451.393 286.666 447.359C291.337 455.343 297.473 462.947 304.409 469.082Q305.567 470.117 306.775 471.093Q307.983 472.069 309.239 472.984Q310.494 473.899 311.793 474.749Q313.093 475.6 314.433 476.385Q315.773 477.17 317.151 477.888Q318.528 478.605 319.94 479.252Q321.352 479.9 322.794 480.477Q324.236 481.053 325.706 481.557Q327.175 482.06 328.667 482.49Q330.16 482.92 331.672 483.275Q333.184 483.63 334.712 483.909Q336.24 484.188 337.78 484.391Q339.32 484.593 340.868 484.719Q342.416 484.844 343.968 484.892Q345.521 484.94 347.074 484.911Q348.626 484.882 350.176 484.775C359.09 484.132 368.093 481.955 374.075 474.847C379.765 468.087 381.402 458.688 380.626 450.099C378.024 421.317 346.997 408.332 325.032 395.939C315.831 390.748 306.626 385.014 298.55 378.164C282.667 364.693 272.164 346.273 270.571 325.308C269.498 311.195 273.233 297.804 282.659 287.067C294.131 273.999 309.513 270.075 326.176 268.981L326.141 238.86Z"/>
</svg>